<!-- icon666.com - MILLIONS vector ICONS FREE --><svg viewBox="0 0 64 64" xmlns="http://www.w3.org/2000/svg"><g id="Layer_51" data-name="Layer 51"><path d="m52.76 51.5h-41a1.5 1.5 0 0 0 0 3h41a1.5 1.5 0 0 0 0-3z" fill="#000000" style="fill: rgb(255, 255, 255);"></path><path d="m52.76 41h-24.61a1.5 1.5 0 0 0 0 3h24.61a1.5 1.5 0 0 0 0-3z" fill="#000000" style="fill: rgb(255, 255, 255);"></path><path d="m52.76 30.42h-41a1.5 1.5 0 0 0 0 3h41a1.5 1.5 0 0 0 0-3z" fill="#000000" style="fill: rgb(255, 255, 255);"></path><path d="m52.25 12.5a1.5 1.5 0 0 0 0-3h-41a1.5 1.5 0 0 0 0 3z" fill="#000000" style="fill: rgb(255, 255, 255);"></path><path d="m28.15 19.88a1.5 1.5 0 0 0 0 3h24.61a1.5 1.5 0 0 0 0-3z" fill="#000000" style="fill: rgb(255, 255, 255);"></path></g></svg>